 <svg
    width="70"
    height="42"
    viewBox="0 0 50 42"
    fill="none"
    xmlns="http://www.w3.org/2000/svg"
  >
    <path
      d="M23.9895 7.94546C23.9895 6.92024 23.037 5.89502 22.0846 5.89502C21.1321 5.89502 20.1797 6.92024 20.1797 7.94546C20.1797 8.97068 21.1321 9.99591 22.0846 9.99591C23.037 9.99591 23.7514 8.97068 23.9895 7.94546Z"
      fill="#FF2853"
    />
    <path
      d="M41.3721 0H19.2276C18.9895 0 18.7514 0 18.5133 0.256305L0.178584 18.7103C-0.0595281 19.2229 -0.0595281 19.7355 0.178584 20.2481L10.6555 32.0382C11.1318 32.5508 11.608 32.5508 12.0842 32.0382L14.7034 29.2188C15.1797 28.7062 15.1797 28.1936 14.7034 27.681L8.51252 20.5044C8.27441 19.9918 8.27441 19.4792 8.51252 18.9666L18.5133 8.97069C18.5133 8.71438 18.2751 8.20177 18.2751 7.94547C18.2751 5.89502 19.9419 4.10089 21.8468 4.35719C23.7517 4.35719 25.4185 6.15133 25.1804 8.20177C25.1804 10.2522 23.5136 12.0464 21.6087 11.79C21.3706 11.5337 20.8944 11.5337 20.4182 11.2774C20.4182 11.2774 20.4182 11.5337 20.18 11.5337L12.3223 19.2229C11.8461 19.4792 11.8461 20.2481 12.3223 20.5044L16.6083 25.6305C17.0846 26.1432 17.5608 26.1432 18.037 25.6305L42.0864 1.79414C42.8007 1.28153 42.3245 0 41.3721 0Z"
      fill="#FF2853"
    />
    <path
      d="M27.084 33.8322C27.084 34.8574 28.0364 35.8826 28.9889 35.8826C29.9413 35.8826 30.8938 34.8574 30.8938 33.8322C30.8938 32.807 29.9413 31.7817 28.9889 31.7817C28.0364 31.7817 27.084 32.807 27.084 33.8322Z"
      fill="#FF2853"
    />
    <path
      d="M9.70281 41.7776H31.8473C32.0854 41.7776 32.3235 41.7776 32.5616 41.5213L50.8963 23.0673C51.3725 22.5547 51.3725 22.0421 50.8963 21.5295L40.4193 9.73944C39.9431 9.22683 39.4669 9.22683 38.9907 9.73944L36.3714 12.5588C35.8952 13.0714 35.8952 13.584 36.3714 14.0966L42.5623 21.5295C42.8005 22.0421 42.8005 22.5547 42.5623 23.0673L32.5616 33.0632C32.5616 33.3195 32.7997 33.8321 32.7997 34.0885C32.7997 36.1389 31.1329 37.933 29.228 37.6767C27.3231 37.6767 25.6563 35.8826 25.8945 33.8321C26.1326 31.7817 27.5612 29.9876 29.4661 30.2439C29.9424 30.2439 30.4186 30.5002 30.8948 30.5002C30.8948 30.5002 30.8948 30.2439 31.1329 30.2439L38.9907 22.5547C39.4669 22.0421 39.4669 21.5295 38.9907 21.0169L34.7046 15.8908C34.2284 15.3782 33.7522 15.3782 33.276 15.8908L8.98847 39.9835C8.27413 40.4961 8.75036 41.7776 9.70281 41.7776Z"
      fill="#FF2853"
    />
  </svg>